<svg xmlns="http://www.w3.org/2000/svg" xmlns:xlink="http://www.w3.org/1999/xlink" width="270" zoomAndPan="magnify" viewBox="0 0 202.5 67.499998" height="90" preserveAspectRatio="xMidYMid meet" version="1.0"><defs><g/><clipPath id="dcdf11dc78"><path d="M 19.628906 39.683594 L 54.203125 39.683594 L 54.203125 63.882812 L 19.628906 63.882812 Z M 19.628906 39.683594 " clip-rule="nonzero"/></clipPath><clipPath id="bf9dd3fd50"><path d="M 33.046875 63.882812 L 21.183594 57.414062 C 18.878906 55.988281 19.300781 53.316406 21.582031 52.1875 L 45.792969 39.683594 L 54.191406 45.425781 C 54.210938 47.378906 53.433594 47.539062 51.625 48.628906 L 34.609375 58.570312 C 32.566406 59.890625 31.785156 61.839844 33.046875 63.882812 Z M 33.046875 63.882812 " clip-rule="nonzero"/></clipPath><clipPath id="5369c8fab1"><path d="M 33.046875 63.882812 L 21.183594 57.414062 C 18.878906 55.988281 19.300781 53.316406 21.582031 52.1875 L 45.792969 39.683594 L 54.191406 45.425781 C 54.210938 47.382812 53.433594 47.539062 51.625 48.628906 L 34.609375 58.570312 C 32.566406 59.890625 31.785156 61.839844 33.046875 63.882812 " clip-rule="nonzero"/></clipPath><linearGradient x1="958.127492" gradientTransform="matrix(0, 0.0333931, 0.0337291, 0, 3.035168, 2.837373)" y1="1240.311726" x2="1948.034948" gradientUnits="userSpaceOnUse" y2="720.393709" id="30967112e5"><stop stop-opacity="1" stop-color="rgb(0%, 37.599182%, 39.199829%)" offset="0"/><stop stop-opacity="1" stop-color="rgb(0%, 37.599182%, 39.199829%)" offset="0.0625"/><stop stop-opacity="1" stop-color="rgb(0%, 37.792969%, 39.393616%)" offset="0.0703125"/><stop stop-opacity="1" stop-color="rgb(0%, 37.992859%, 39.593506%)" offset="0.078125"/><stop stop-opacity="1" stop-color="rgb(0%, 38.180542%, 39.781189%)" offset="0.0859375"/><stop stop-opacity="1" stop-color="rgb(0%, 38.380432%, 40.155029%)" offset="0.09375"/><stop stop-opacity="1" stop-color="rgb(0%, 38.398743%, 40.37323%)" offset="0.101563"/><stop stop-opacity="1" stop-color="rgb(0%, 38.583374%, 40.583801%)" offset="0.109375"/><stop stop-opacity="1" stop-color="rgb(0%, 38.95874%, 40.957642%)" offset="0.125"/><stop stop-opacity="1" stop-color="rgb(0%, 39.173889%, 41.340637%)" offset="0.132812"/><stop stop-opacity="1" stop-color="rgb(0%, 39.360046%, 41.566467%)" offset="0.140625"/><stop stop-opacity="1" stop-color="rgb(0%, 39.559937%, 41.775513%)" offset="0.148437"/><stop stop-opacity="1" stop-color="rgb(0%, 39.772034%, 41.975403%)" offset="0.15625"/><stop stop-opacity="1" stop-color="rgb(0%, 39.971924%, 42.166138%)" offset="0.164063"/><stop stop-opacity="1" stop-color="rgb(0%, 40.159607%, 42.485046%)" offset="0.171875"/><stop stop-opacity="1" stop-color="rgb(0%, 40.505981%, 42.816162%)" offset="0.1875"/><stop stop-opacity="1" stop-color="rgb(0%, 40.745544%, 43.04657%)" offset="0.195312"/><stop stop-opacity="1" stop-color="rgb(0%, 40.957642%, 43.258667%)" offset="0.203125"/><stop stop-opacity="1" stop-color="rgb(0%, 41.157532%, 43.611145%)" offset="0.210938"/><stop stop-opacity="1" stop-color="rgb(0%, 41.345215%, 43.852234%)" offset="0.21875"/><stop stop-opacity="1" stop-color="rgb(0%, 41.545105%, 44.038391%)" offset="0.226562"/><stop stop-opacity="1" stop-color="rgb(0%, 41.751099%, 44.238281%)" offset="0.234375"/><stop stop-opacity="1" stop-color="rgb(0%, 41.950989%, 44.450378%)" offset="0.242187"/><stop stop-opacity="1" stop-color="rgb(0%, 42.144775%, 44.795227%)" offset="0.25"/><stop stop-opacity="1" stop-color="rgb(0%, 42.443848%, 45.175171%)" offset="0.265625"/><stop stop-opacity="1" stop-color="rgb(0%, 42.648315%, 45.573425%)" offset="0.269531"/><stop stop-opacity="1" stop-color="rgb(0%, 42.698669%, 45.785522%)" offset="0.273438"/><stop stop-opacity="1" stop-color="rgb(0%, 42.842102%, 45.84198%)" offset="0.28125"/><stop stop-opacity="1" stop-color="rgb(0%, 43.043518%, 46.037292%)" offset="0.289062"/><stop stop-opacity="1" stop-color="rgb(0%, 43.099976%, 46.237183%)" offset="0.296875"/><stop stop-opacity="1" stop-color="rgb(0%, 43.223572%, 46.42334%)" offset="0.304688"/><stop stop-opacity="1" stop-color="rgb(0%, 43.423462%, 46.742249%)" offset="0.3125"/><stop stop-opacity="1" stop-color="rgb(0%, 43.626404%, 47.016907%)" offset="0.320312"/><stop stop-opacity="1" stop-color="rgb(0%, 43.826294%, 47.229004%)" offset="0.328125"/><stop stop-opacity="1" stop-color="rgb(0%, 44.023132%, 47.428894%)" offset="0.335938"/><stop stop-opacity="1" stop-color="rgb(0%, 44.223022%, 47.58606%)" offset="0.34375"/><stop stop-opacity="1" stop-color="rgb(0%, 44.40918%, 47.846985%)" offset="0.351562"/><stop stop-opacity="1" stop-color="rgb(0%, 44.60907%, 48.109436%)" offset="0.359375"/><stop stop-opacity="1" stop-color="rgb(0%, 44.821167%, 48.321533%)" offset="0.367188"/><stop stop-opacity="1" stop-color="rgb(0%, 45.021057%, 48.521423%)" offset="0.375"/><stop stop-opacity="1" stop-color="rgb(0%, 45.20874%, 48.709106%)" offset="0.382812"/><stop stop-opacity="1" stop-color="rgb(0%, 45.40863%, 49.01123%)" offset="0.390625"/><stop stop-opacity="1" stop-color="rgb(0%, 45.608521%, 49.301147%)" offset="0.398438"/><stop stop-opacity="1" stop-color="rgb(0%, 45.809937%, 49.513245%)" offset="0.40625"/><stop stop-opacity="1" stop-color="rgb(0%, 46.008301%, 49.713135%)" offset="0.414062"/><stop stop-opacity="1" stop-color="rgb(0%, 46.208191%, 49.900818%)" offset="0.421875"/><stop stop-opacity="1" stop-color="rgb(0%, 46.394348%, 50.196838%)" offset="0.426254"/><stop stop-opacity="1" stop-color="rgb(0%, 46.490479%, 50.390625%)" offset="0.429688"/><stop stop-opacity="1" stop-color="rgb(0%, 46.594238%, 50.546265%)" offset="0.4375"/><stop stop-opacity="1" stop-color="rgb(0%, 46.794128%, 50.85144%)" offset="0.445312"/><stop stop-opacity="1" stop-color="rgb(0%, 46.994019%, 50.999451%)" offset="0.453125"/><stop stop-opacity="1" stop-color="rgb(0%, 47.193909%, 51.094055%)" offset="0.460938"/><stop stop-opacity="1" stop-color="rgb(0%, 47.393799%, 51.38092%)" offset="0.46875"/><stop stop-opacity="1" stop-color="rgb(0%, 47.56012%, 51.686096%)" offset="0.476562"/><stop stop-opacity="1" stop-color="rgb(0%, 47.709656%, 51.88446%)" offset="0.484375"/><stop stop-opacity="1" stop-color="rgb(0%, 47.799683%, 52.154541%)" offset="0.492188"/><stop stop-opacity="1" stop-color="rgb(0%, 47.886658%, 52.418518%)" offset="0.5"/><stop stop-opacity="1" stop-color="rgb(0%, 48.086548%, 52.580261%)" offset="0.507812"/><stop stop-opacity="1" stop-color="rgb(0%, 48.272705%, 52.780151%)" offset="0.515625"/><stop stop-opacity="1" stop-color="rgb(0%, 48.472595%, 52.975464%)" offset="0.523438"/><stop stop-opacity="1" stop-color="rgb(0%, 48.684692%, 53.262329%)" offset="0.527344"/><stop stop-opacity="1" stop-color="rgb(0%, 48.771667%, 53.471375%)" offset="0.53125"/><stop stop-opacity="1" stop-color="rgb(0%, 48.957825%, 53.657532%)" offset="0.546875"/><stop stop-opacity="1" stop-color="rgb(0%, 49.331665%, 54.031372%)" offset="0.5625"/><stop stop-opacity="1" stop-color="rgb(0%, 49.658203%, 54.444885%)" offset="0.566406"/><stop stop-opacity="1" stop-color="rgb(0%, 49.798584%, 54.670715%)" offset="0.570312"/><stop stop-opacity="1" stop-color="rgb(0%, 49.998474%, 54.785156%)" offset="0.574219"/><stop stop-opacity="1" stop-color="rgb(0%, 50.19989%, 54.899597%)" offset="0.578125"/><stop stop-opacity="1" stop-color="rgb(0%, 50.19989%, 54.96521%)" offset="0.585937"/><stop stop-opacity="1" stop-color="rgb(0%, 50.257874%, 55.1651%)" offset="0.59375"/><stop stop-opacity="1" stop-color="rgb(0%, 50.457764%, 55.351257%)" offset="0.601562"/><stop stop-opacity="1" stop-color="rgb(0%, 50.65155%, 55.604553%)" offset="0.605469"/><stop stop-opacity="1" stop-color="rgb(0%, 50.704956%, 55.804443%)" offset="0.609375"/><stop stop-opacity="1" stop-color="rgb(0.257874%, 51.11084%, 56.210327%)" offset="0.613281"/><stop stop-opacity="1" stop-color="rgb(0.515747%, 51.516724%, 56.616211%)" offset="0.617188"/><stop stop-opacity="1" stop-color="rgb(1.289368%, 52.23999%, 57.339478%)" offset="0.621094"/><stop stop-opacity="1" stop-color="rgb(2.064514%, 52.964783%, 58.06427%)" offset="0.625"/><stop stop-opacity="1" stop-color="rgb(2.787781%, 53.738403%, 59.037781%)" offset="0.628906"/><stop stop-opacity="1" stop-color="rgb(3.512573%, 54.512024%, 60.012817%)" offset="0.632812"/><stop stop-opacity="1" stop-color="rgb(4.376221%, 55.485535%, 60.876465%)" offset="0.636719"/><stop stop-opacity="1" stop-color="rgb(5.239868%, 56.460571%, 61.740112%)" offset="0.640625"/><stop stop-opacity="1" stop-color="rgb(6.123352%, 57.183838%, 62.573242%)" offset="0.644531"/><stop stop-opacity="1" stop-color="rgb(7.008362%, 57.90863%, 63.407898%)" offset="0.648438"/><stop stop-opacity="1" stop-color="rgb(7.832336%, 58.895874%, 64.482117%)" offset="0.652344"/><stop stop-opacity="1" stop-color="rgb(8.656311%, 59.884644%, 65.556335%)" offset="0.65625"/><stop stop-opacity="1" stop-color="rgb(9.629822%, 60.743713%, 66.329956%)" offset="0.660156"/><stop stop-opacity="1" stop-color="rgb(10.604858%, 61.604309%, 67.103577%)" offset="0.664063"/><stop stop-opacity="1" stop-color="rgb(11.355591%, 62.327576%, 68.026733%)" offset="0.667969"/><stop stop-opacity="1" stop-color="rgb(12.107849%, 63.052368%, 68.951416%)" offset="0.671875"/><stop stop-opacity="1" stop-color="rgb(12.854004%, 64.025879%, 69.801331%)" offset="0.675781"/><stop stop-opacity="1" stop-color="rgb(13.600159%, 64.99939%, 70.651245%)" offset="0.679688"/><stop stop-opacity="1" stop-color="rgb(14.573669%, 65.77301%, 71.533203%)" offset="0.683594"/><stop stop-opacity="1" stop-color="rgb(15.548706%, 66.548157%, 72.416687%)" offset="0.6875"/><stop stop-opacity="1" stop-color="rgb(16.339111%, 67.370605%, 73.388672%)" offset="0.691406"/><stop stop-opacity="1" stop-color="rgb(17.129517%, 68.193054%, 74.362183%)" offset="0.695313"/><stop stop-opacity="1" stop-color="rgb(17.936707%, 69.168091%, 75.288391%)" offset="0.699219"/><stop stop-opacity="1" stop-color="rgb(18.743896%, 70.144653%, 76.216125%)" offset="0.703125"/><stop stop-opacity="1" stop-color="rgb(19.717407%, 70.918274%, 77.053833%)" offset="0.707031"/><stop stop-opacity="1" stop-color="rgb(20.692444%, 71.691895%, 77.891541%)" offset="0.710938"/><stop stop-opacity="1" stop-color="rgb(21.450806%, 72.615051%, 78.865051%)" offset="0.714844"/><stop stop-opacity="1" stop-color="rgb(22.210693%, 73.539734%, 79.840088%)" offset="0.71875"/><stop stop-opacity="1" stop-color="rgb(22.949219%, 74.313354%, 80.661011%)" offset="0.722656"/><stop stop-opacity="1" stop-color="rgb(23.687744%, 75.088501%, 81.481934%)" offset="0.726563"/><stop stop-opacity="1" stop-color="rgb(24.684143%, 75.918579%, 82.382202%)" offset="0.730469"/><stop stop-opacity="1" stop-color="rgb(25.682068%, 76.750183%, 83.282471%)" offset="0.734375"/><stop stop-opacity="1" stop-color="rgb(26.515198%, 77.716064%, 84.204102%)" offset="0.738281"/><stop stop-opacity="1" stop-color="rgb(27.348328%, 78.683472%, 85.127258%)" offset="0.742187"/><stop stop-opacity="1" stop-color="rgb(28.031921%, 79.399109%, 85.971069%)" offset="0.746094"/><stop stop-opacity="1" stop-color="rgb(28.715515%, 80.116272%, 86.816406%)" offset="0.75"/><stop stop-opacity="1" stop-color="rgb(28.842163%, 80.230713%, 86.886597%)" offset="0.757812"/><stop stop-opacity="1" stop-color="rgb(26.872253%, 78.22876%, 84.642029%)" offset="0.761719"/><stop stop-opacity="1" stop-color="rgb(24.777222%, 76.112366%, 82.328796%)" offset="0.765625"/><stop stop-opacity="1" stop-color="rgb(22.673035%, 74.040222%, 80.072021%)" offset="0.769531"/><stop stop-opacity="1" stop-color="rgb(20.568848%, 71.968079%, 77.816772%)" offset="0.773437"/><stop stop-opacity="1" stop-color="rgb(18.196106%, 69.451904%, 75.434875%)" offset="0.777344"/><stop stop-opacity="1" stop-color="rgb(15.82489%, 66.937256%, 73.052979%)" offset="0.78125"/><stop stop-opacity="1" stop-color="rgb(13.752747%, 64.811707%, 70.776367%)" offset="0.785156"/><stop stop-opacity="1" stop-color="rgb(11.680603%, 62.687683%, 68.501282%)" offset="0.789062"/><stop stop-opacity="1" stop-color="rgb(9.565735%, 60.569763%, 66.226196%)" offset="0.792969"/><stop stop-opacity="1" stop-color="rgb(7.450867%, 58.451843%, 63.951111%)" offset="0.796875"/><stop stop-opacity="1" stop-color="rgb(5.392456%, 56.388855%, 61.705017%)" offset="0.800781"/><stop stop-opacity="1" stop-color="rgb(3.335571%, 54.325867%, 59.460449%)" offset="0.804688"/><stop stop-opacity="1" stop-color="rgb(1.667786%, 52.662659%, 57.778931%)" offset="0.808594"/><stop stop-opacity="1" stop-color="rgb(0%, 50.999451%, 56.098938%)" offset="0.8125"/><stop stop-opacity="1" stop-color="rgb(0%, 50.999451%, 56.098938%)" offset="0.875"/><stop stop-opacity="1" stop-color="rgb(0%, 50.999451%, 56.098938%)" offset="1"/></linearGradient><clipPath id="e60cc4f534"><path d="M 3.035156 20.523438 L 45.195312 20.523438 L 45.195312 52.605469 L 3.035156 52.605469 Z M 3.035156 20.523438 " clip-rule="nonzero"/></clipPath><clipPath id="bb5e3ce45c"><path d="M 16.480469 52.605469 L 4.570312 46.558594 C 2.265625 45.132812 2.6875 41.898438 4.96875 40.769531 L 45.195312 20.523438 L 44.980469 31.246094 C 45.003906 33.199219 44.109375 33.476562 42.296875 34.5625 L 24.011719 43.976562 C 20.605469 45.71875 13.894531 48.511719 16.480469 52.605469 Z M 16.480469 52.605469 " clip-rule="nonzero"/></clipPath><clipPath id="2c3e150aaa"><path d="M 16.480469 52.605469 L 4.570312 46.558594 C 2.265625 45.132812 2.6875 41.898438 4.96875 40.769531 L 45.195312 20.523438 L 44.980469 31.246094 C 45.003906 33.199219 44.109375 33.476562 42.296875 34.5625 L 24.011719 43.976562 C 20.605469 45.71875 13.894531 48.511719 16.480469 52.605469 " clip-rule="nonzero"/></clipPath><linearGradient x1="379.292317" gradientTransform="matrix(0, 0.0333931, 0.0337291, 0, 3.035168, 2.837373)" y1="985.939419" x2="1642.35622" gradientUnits="userSpaceOnUse" y2="266.912842" id="d1348332af"><stop stop-opacity="1" stop-color="rgb(0%, 37.599182%, 39.199829%)" offset="0"/><stop stop-opacity="1" stop-color="rgb(0%, 37.599182%, 39.199829%)" offset="0.125"/><stop stop-opacity="1" stop-color="rgb(0%, 37.599182%, 39.199829%)" offset="0.15625"/><stop stop-opacity="1" stop-color="rgb(0%, 37.600708%, 39.201355%)" offset="0.164063"/><stop stop-opacity="1" stop-color="rgb(0%, 37.797546%, 39.398193%)" offset="0.171875"/><stop stop-opacity="1" stop-color="rgb(0%, 37.995911%, 39.788818%)" offset="0.179688"/><stop stop-opacity="1" stop-color="rgb(0%, 38.186646%, 39.99176%)" offset="0.1875"/><stop stop-opacity="1" stop-color="rgb(0%, 38.394165%, 40.206909%)" offset="0.191406"/><stop stop-opacity="1" stop-color="rgb(0%, 38.415527%, 40.414429%)" offset="0.195312"/><stop stop-opacity="1" stop-color="rgb(0%, 38.606262%, 40.606689%)" offset="0.203125"/><stop stop-opacity="1" stop-color="rgb(0%, 38.99231%, 40.992737%)" offset="0.21875"/><stop stop-opacity="1" stop-color="rgb(0%, 39.1922%, 41.381836%)" offset="0.226562"/><stop stop-opacity="1" stop-color="rgb(0%, 39.408875%, 41.596985%)" offset="0.230469"/><stop stop-opacity="1" stop-color="rgb(0%, 39.61792%, 41.618347%)" offset="0.234375"/><stop stop-opacity="1" stop-color="rgb(0%, 39.808655%, 41.81366%)" offset="0.242188"/><stop stop-opacity="1" stop-color="rgb(0%, 39.99939%, 42.204285%)" offset="0.25"/><stop stop-opacity="1" stop-color="rgb(0%, 40.194702%, 42.399597%)" offset="0.257812"/><stop stop-opacity="1" stop-color="rgb(0%, 40.394592%, 42.541504%)" offset="0.265625"/><stop stop-opacity="1" stop-color="rgb(0%, 40.59906%, 42.892456%)" offset="0.269531"/><stop stop-opacity="1" stop-color="rgb(0%, 40.79895%, 43.099976%)" offset="0.273438"/><stop stop-opacity="1" stop-color="rgb(0%, 40.805054%, 43.106079%)" offset="0.28125"/><stop stop-opacity="1" stop-color="rgb(0%, 41.004944%, 43.307495%)" offset="0.289062"/><stop stop-opacity="1" stop-color="rgb(0%, 41.19873%, 43.69812%)" offset="0.296875"/><stop stop-opacity="1" stop-color="rgb(0%, 41.390991%, 44.088745%)" offset="0.304688"/><stop stop-opacity="1" stop-color="rgb(0%, 41.590881%, 44.291687%)" offset="0.3125"/><stop stop-opacity="1" stop-color="rgb(0%, 41.80603%, 44.506836%)" offset="0.316406"/><stop stop-opacity="1" stop-color="rgb(0%, 42.015076%, 44.714355%)" offset="0.320313"/><stop stop-opacity="1" stop-color="rgb(0%, 42.207336%, 44.906616%)" offset="0.328125"/><stop stop-opacity="1" stop-color="rgb(0%, 42.544556%, 45.292664%)" offset="0.34375"/><stop stop-opacity="1" stop-color="rgb(0%, 42.694092%, 45.681763%)" offset="0.351563"/><stop stop-opacity="1" stop-color="rgb(0%, 42.89856%, 45.896912%)" offset="0.355469"/><stop stop-opacity="1" stop-color="rgb(0%, 43.099976%, 45.918274%)" offset="0.359375"/><stop stop-opacity="1" stop-color="rgb(0%, 43.104553%, 46.113586%)" offset="0.367188"/><stop stop-opacity="1" stop-color="rgb(0%, 43.304443%, 46.504211%)" offset="0.375"/><stop stop-opacity="1" stop-color="rgb(0%, 43.690491%, 46.890259%)" offset="0.390625"/><stop stop-opacity="1" stop-color="rgb(0%, 43.901062%, 47.290039%)" offset="0.394531"/><stop stop-opacity="1" stop-color="rgb(0%, 43.920898%, 47.499084%)" offset="0.398437"/><stop stop-opacity="1" stop-color="rgb(0%, 44.110107%, 47.503662%)" offset="0.40625"/><stop stop-opacity="1" stop-color="rgb(0%, 44.300842%, 47.654724%)" offset="0.414062"/><stop stop-opacity="1" stop-color="rgb(0%, 44.497681%, 47.998047%)" offset="0.421875"/><stop stop-opacity="1" stop-color="rgb(0%, 44.895935%, 48.384094%)" offset="0.425781"/><stop stop-opacity="1" stop-color="rgb(0%, 45.098877%, 48.574829%)" offset="0.429687"/><stop stop-opacity="1" stop-color="rgb(0%, 45.098877%, 48.587036%)" offset="0.4375"/><stop stop-opacity="1" stop-color="rgb(0%, 45.298767%, 48.806763%)" offset="0.441406"/><stop stop-opacity="1" stop-color="rgb(0%, 45.498657%, 49.014282%)" offset="0.445312"/><stop stop-opacity="1" stop-color="rgb(0%, 45.501709%, 49.206543%)" offset="0.453125"/><stop stop-opacity="1" stop-color="rgb(0%, 45.700073%, 49.398804%)" offset="0.460938"/><stop stop-opacity="1" stop-color="rgb(0%, 45.896912%, 49.59259%)" offset="0.46875"/><stop stop-opacity="1" stop-color="rgb(0%, 46.087646%, 49.981689%)" offset="0.476562"/><stop stop-opacity="1" stop-color="rgb(0%, 46.296692%, 50.196838%)" offset="0.484375"/><stop stop-opacity="1" stop-color="rgb(0%, 46.508789%, 50.413513%)" offset="0.492188"/><stop stop-opacity="1" stop-color="rgb(0%, 46.699524%, 50.804138%)" offset="0.5"/><stop stop-opacity="1" stop-color="rgb(0%, 46.894836%, 50.999451%)" offset="0.507813"/><stop stop-opacity="1" stop-color="rgb(0%, 47.285461%, 51.190186%)" offset="0.515625"/><stop stop-opacity="1" stop-color="rgb(0%, 47.497559%, 51.589966%)" offset="0.519531"/><stop stop-opacity="1" stop-color="rgb(0%, 47.515869%, 51.799011%)" offset="0.523438"/><stop stop-opacity="1" stop-color="rgb(0%, 47.657776%, 51.805115%)" offset="0.53125"/><stop stop-opacity="1" stop-color="rgb(0%, 47.801208%, 52.006531%)" offset="0.539063"/><stop stop-opacity="1" stop-color="rgb(0%, 47.998047%, 52.348328%)" offset="0.546875"/><stop stop-opacity="1" stop-color="rgb(0%, 48.384094%, 52.684021%)" offset="0.5625"/><stop stop-opacity="1" stop-color="rgb(0%, 48.599243%, 53.086853%)" offset="0.566406"/><stop stop-opacity="1" stop-color="rgb(0%, 48.623657%, 53.29895%)" offset="0.570313"/><stop stop-opacity="1" stop-color="rgb(0%, 48.81134%, 53.49884%)" offset="0.574219"/><stop stop-opacity="1" stop-color="rgb(0%, 48.999023%, 53.69873%)" offset="0.578125"/><stop stop-opacity="1" stop-color="rgb(0%, 49.19281%, 53.892517%)" offset="0.59375"/><stop stop-opacity="1" stop-color="rgb(0%, 49.3927%, 54.281616%)" offset="0.601563"/><stop stop-opacity="1" stop-color="rgb(0%, 49.607849%, 54.496765%)" offset="0.605469"/><stop stop-opacity="1" stop-color="rgb(0%, 49.81842%, 54.518127%)" offset="0.609375"/><stop stop-opacity="1" stop-color="rgb(0%, 50.009155%, 54.71344%)" offset="0.617188"/><stop stop-opacity="1" stop-color="rgb(0%, 50.19989%, 55.104065%)" offset="0.625"/><stop stop-opacity="1" stop-color="rgb(0%, 50.395203%, 55.299377%)" offset="0.632813"/><stop stop-opacity="1" stop-color="rgb(0%, 50.595093%, 55.490112%)" offset="0.640625"/><stop stop-opacity="1" stop-color="rgb(0.0427246%, 50.842285%, 55.934143%)" offset="0.644531"/><stop stop-opacity="1" stop-color="rgb(0.0869751%, 51.086426%, 56.187439%)" offset="0.648438"/><stop stop-opacity="1" stop-color="rgb(1.065063%, 52.017212%, 57.130432%)" offset="0.652344"/><stop stop-opacity="1" stop-color="rgb(2.043152%, 52.949524%, 58.074951%)" offset="0.65625"/><stop stop-opacity="1" stop-color="rgb(2.97699%, 53.930664%, 59.04541%)" offset="0.660156"/><stop stop-opacity="1" stop-color="rgb(3.912354%, 54.911804%, 60.017395%)" offset="0.664063"/><stop stop-opacity="1" stop-color="rgb(4.88739%, 55.886841%, 60.995483%)" offset="0.667969"/><stop stop-opacity="1" stop-color="rgb(5.862427%, 56.861877%, 61.973572%)" offset="0.671875"/><stop stop-opacity="1" stop-color="rgb(6.64978%, 57.783508%, 63.088989%)" offset="0.675781"/><stop stop-opacity="1" stop-color="rgb(7.437134%, 58.705139%, 64.205933%)" offset="0.679688"/><stop stop-opacity="1" stop-color="rgb(8.36792%, 59.677124%, 65.177917%)" offset="0.683594"/><stop stop-opacity="1" stop-color="rgb(9.298706%, 60.649109%, 66.149902%)" offset="0.6875"/><stop stop-opacity="1" stop-color="rgb(10.391235%, 61.705017%, 67.221069%)" offset="0.691406"/><stop stop-opacity="1" stop-color="rgb(11.485291%, 62.762451%, 68.292236%)" offset="0.695313"/><stop stop-opacity="1" stop-color="rgb(12.409973%, 63.743591%, 69.264221%)" offset="0.699219"/><stop stop-opacity="1" stop-color="rgb(13.336182%, 64.724731%, 70.236206%)" offset="0.703125"/><stop stop-opacity="1" stop-color="rgb(14.311218%, 65.70282%, 71.359253%)" offset="0.707031"/><stop stop-opacity="1" stop-color="rgb(15.286255%, 66.680908%, 72.4823%)" offset="0.710938"/><stop stop-opacity="1" stop-color="rgb(16.255188%, 67.417908%, 73.452759%)" offset="0.714844"/><stop stop-opacity="1" stop-color="rgb(17.224121%, 68.154907%, 74.424744%)" offset="0.71875"/><stop stop-opacity="1" stop-color="rgb(18.145752%, 69.132996%, 75.396729%)" offset="0.722656"/><stop stop-opacity="1" stop-color="rgb(19.067383%, 70.111084%, 76.368713%)" offset="0.726562"/><stop stop-opacity="1" stop-color="rgb(20.170593%, 71.206665%, 77.43988%)" offset="0.730469"/><stop stop-opacity="1" stop-color="rgb(21.273804%, 72.302246%, 78.511047%)" offset="0.734375"/><stop stop-opacity="1" stop-color="rgb(22.20459%, 73.228455%, 79.483032%)" offset="0.738281"/><stop stop-opacity="1" stop-color="rgb(23.136902%, 74.156189%, 80.455017%)" offset="0.742188"/><stop stop-opacity="1" stop-color="rgb(24.118042%, 75.126648%, 81.576538%)" offset="0.746094"/><stop stop-opacity="1" stop-color="rgb(25.099182%, 76.098633%, 82.699585%)" offset="0.75"/><stop stop-opacity="1" stop-color="rgb(25.880432%, 77.032471%, 83.67157%)" offset="0.753906"/><stop stop-opacity="1" stop-color="rgb(26.661682%, 77.966309%, 84.643555%)" offset="0.757812"/><stop stop-opacity="1" stop-color="rgb(27.592468%, 78.944397%, 85.614014%)" offset="0.761719"/><stop stop-opacity="1" stop-color="rgb(28.52478%, 79.924011%, 86.585999%)" offset="0.765625"/><stop stop-opacity="1" stop-color="rgb(28.636169%, 80.007935%, 86.51123%)" offset="0.773438"/><stop stop-opacity="1" stop-color="rgb(26.251221%, 77.62146%, 83.943176%)" offset="0.777344"/><stop stop-opacity="1" stop-color="rgb(23.754883%, 75.149536%, 81.44989%)" offset="0.78125"/><stop stop-opacity="1" stop-color="rgb(21.458435%, 72.654724%, 78.952026%)" offset="0.785156"/><stop stop-opacity="1" stop-color="rgb(19.163513%, 70.161438%, 76.455688%)" offset="0.789062"/><stop stop-opacity="1" stop-color="rgb(16.674805%, 67.866516%, 73.962402%)" offset="0.792969"/><stop stop-opacity="1" stop-color="rgb(14.186096%, 65.571594%, 71.470642%)" offset="0.796875"/><stop stop-opacity="1" stop-color="rgb(11.886597%, 63.075256%, 68.789673%)" offset="0.800781"/><stop stop-opacity="1" stop-color="rgb(9.587097%, 60.578918%, 66.110229%)" offset="0.804687"/><stop stop-opacity="1" stop-color="rgb(7.092285%, 58.106995%, 63.623047%)" offset="0.808594"/><stop stop-opacity="1" stop-color="rgb(4.598999%, 55.636597%, 61.13739%)" offset="0.8125"/><stop stop-opacity="1" stop-color="rgb(2.2995%, 53.317261%, 58.618164%)" offset="0.816406"/><stop stop-opacity="1" stop-color="rgb(0%, 50.999451%, 56.098938%)" offset="0.820312"/><stop stop-opacity="1" stop-color="rgb(0%, 50.999451%, 56.098938%)" offset="0.828125"/><stop stop-opacity="1" stop-color="rgb(0%, 50.999451%, 56.098938%)" offset="0.84375"/><stop stop-opacity="1" stop-color="rgb(0%, 50.999451%, 56.098938%)" offset="0.875"/><stop stop-opacity="1" stop-color="rgb(0%, 50.999451%, 56.098938%)" offset="1"/></linearGradient><clipPath id="2ca98151b8"><path d="M 12.613281 23.140625 L 54.234375 23.140625 L 54.234375 54.996094 L 12.613281 54.996094 Z M 12.613281 23.140625 " clip-rule="nonzero"/></clipPath><clipPath id="ecb650077c"><path d="M 40.730469 54.992188 L 52.726562 48.191406 C 55.03125 46.765625 54.476562 43.808594 52.195312 42.679688 L 12.738281 23.144531 L 12.628906 33.109375 C 12.609375 35.066406 13.503906 35.339844 15.3125 36.425781 L 39.167969 49.0625 C 41.210938 50.382812 41.992188 52.949219 40.730469 54.992188 Z M 40.730469 54.992188 " clip-rule="nonzero"/></clipPath><clipPath id="37d0289aeb"><path d="M 40.730469 54.992188 L 52.726562 48.191406 C 55.03125 46.765625 54.476562 43.808594 52.195312 42.679688 L 12.738281 23.144531 L 12.628906 33.109375 C 12.609375 35.066406 13.503906 35.339844 15.3125 36.425781 L 39.167969 49.0625 C 41.210938 50.382812 41.992188 52.949219 40.730469 54.992188 " clip-rule="nonzero"/></clipPath><clipPath id="f3f3df15d7"><path d="M 12.242188 2.835938 L 54.40625 2.835938 L 54.40625 35.261719 L 12.242188 35.261719 Z M 12.242188 2.835938 " clip-rule="nonzero"/></clipPath><clipPath id="b76cebc993"><path d="M 40.960938 35.25 L 52.871094 28.871094 C 55.175781 27.449219 54.753906 24.214844 52.472656 23.085938 L 12.242188 2.835938 L 12.457031 13.558594 C 12.4375 15.515625 13.332031 15.789062 15.140625 16.878906 L 33.425781 26.292969 C 36.835938 28.03125 43.542969 31.15625 40.960938 35.25 Z M 40.960938 35.25 " clip-rule="nonzero"/></clipPath><clipPath id="65d0e3719d"><path d="M 40.960938 35.25 L 52.871094 28.871094 C 55.175781 27.449219 54.753906 24.214844 52.472656 23.085938 L 12.242188 2.835938 L 12.457031 13.558594 C 12.4375 15.515625 13.332031 15.789062 15.140625 16.878906 L 33.425781 26.292969 C 36.835938 28.03125 43.542969 31.15625 40.960938 35.25 " clip-rule="nonzero"/></clipPath></defs><g clip-path="url(#dcdf11dc78)"><g clip-path="url(#bf9dd3fd50)"><g clip-path="url(#5369c8fab1)"><path fill="url(#30967112e5)" d="M 19.628906 39.683594 L 54.203125 39.683594 L 54.203125 63.882812 L 19.628906 63.882812 Z M 19.628906 39.683594 " fill-rule="nonzero"/></g></g></g><g clip-path="url(#e60cc4f534)"><g clip-path="url(#bb5e3ce45c)"><g clip-path="url(#2c3e150aaa)"><path fill="url(#d1348332af)" d="M 3.035156 20.523438 L 45.195312 20.523438 L 45.195312 52.605469 L 3.035156 52.605469 Z M 3.035156 20.523438 " fill-rule="nonzero"/></g></g></g><g clip-path="url(#2ca98151b8)"><g clip-path="url(#ecb650077c)"><g clip-path="url(#37d0289aeb)"><path fill="#ff8f00" d="M 54.4375 23.144531 L 54.4375 54.992188 L 12.609375 54.992188 L 12.609375 23.144531 Z M 54.4375 23.144531 " fill-opacity="1" fill-rule="nonzero"/></g></g></g><g clip-path="url(#f3f3df15d7)"><g clip-path="url(#b76cebc993)"><g clip-path="url(#65d0e3719d)"><path fill="#ff8f00" d="M 54.4375 2.835938 L 54.4375 35.25 L 12.242188 35.25 L 12.242188 2.835938 Z M 54.4375 2.835938 " fill-opacity="1" fill-rule="nonzero"/></g></g></g><g fill="#ff8f00" fill-opacity="1"><g transform="translate(66.196465, 35.254244)"><g><path d="M 19.78125 -15.84375 L 22.734375 -15.84375 L 22.734375 0 L 19.8125 0 L 19.8125 -10.25 L 13.609375 0 L 10.734375 0 L 4.28125 -10.390625 L 4.28125 0 L 1.359375 0 L 1.359375 -15.84375 L 4.328125 -15.84375 L 12.15625 -3.234375 Z M 19.78125 -15.84375 "/></g></g></g><g fill="#ff8f00" fill-opacity="1"><g transform="translate(90.286496, 35.254244)"><g><path d="M 4.28125 0 L 1.359375 0 L 1.359375 -15.84375 L 4.28125 -15.84375 Z M 4.28125 0 "/></g></g></g><g fill="#ff8f00" fill-opacity="1"><g transform="translate(95.924108, 35.254244)"><g><path d="M 16.65625 -10 C 17.945312 -9.84375 18.976562 -9.578125 19.75 -9.203125 C 20.53125 -8.835938 21.125 -8.421875 21.53125 -7.953125 C 21.9375 -7.484375 22.210938 -7.003906 22.359375 -6.515625 C 22.515625 -6.035156 22.59375 -5.59375 22.59375 -5.1875 C 22.59375 -4.09375 22.1875 -3.148438 21.375 -2.359375 C 20.914062 -1.921875 20.375 -1.554688 19.75 -1.265625 C 19.125 -0.984375 18.46875 -0.753906 17.78125 -0.578125 C 17.09375 -0.398438 16.421875 -0.269531 15.765625 -0.1875 C 15.109375 -0.101562 14.519531 -0.0507812 14 -0.03125 C 13.476562 -0.0078125 13.082031 0 12.8125 0 C 12.75 0 12.691406 0 12.640625 0 C 12.585938 0 12.546875 0 12.515625 0 L 1.359375 0 L 1.359375 -15.828125 L 8.40625 -15.828125 C 8.957031 -15.828125 9.601562 -15.8125 10.34375 -15.78125 C 11.082031 -15.75 11.835938 -15.671875 12.609375 -15.546875 C 13.378906 -15.429688 14.09375 -15.222656 14.75 -14.921875 C 15.40625 -14.628906 15.9375 -14.210938 16.34375 -13.671875 C 16.75 -13.140625 16.953125 -12.460938 16.953125 -11.640625 C 16.953125 -11.015625 16.851562 -10.46875 16.65625 -10 Z M 4.28125 -12.90625 L 4.28125 -10.171875 L 7.8125 -10.171875 C 9.0625 -10.171875 10.078125 -10.195312 10.859375 -10.25 C 11.648438 -10.300781 12.265625 -10.375 12.703125 -10.46875 C 13.140625 -10.570312 13.453125 -10.679688 13.640625 -10.796875 C 13.828125 -10.921875 13.9375 -11.050781 13.96875 -11.1875 C 14.007812 -11.332031 14.03125 -11.484375 14.03125 -11.640625 C 14.03125 -11.835938 13.882812 -12.03125 13.59375 -12.21875 C 13.300781 -12.414062 12.75 -12.578125 11.9375 -12.703125 C 11.132812 -12.835938 9.957031 -12.90625 8.40625 -12.90625 Z M 19.109375 -4.4375 C 19.253906 -4.582031 19.347656 -4.71875 19.390625 -4.84375 C 19.429688 -4.96875 19.453125 -5.082031 19.453125 -5.1875 C 19.453125 -5.6875 19.191406 -6.085938 18.671875 -6.390625 C 18.148438 -6.691406 17.472656 -6.910156 16.640625 -7.046875 C 15.804688 -7.179688 14.9375 -7.25 14.03125 -7.25 L 4.28125 -7.25 L 4.28125 -2.921875 L 12.546875 -2.921875 C 13.046875 -2.898438 13.609375 -2.910156 14.234375 -2.953125 C 14.867188 -3.003906 15.5 -3.085938 16.125 -3.203125 C 16.757812 -3.328125 17.335938 -3.488281 17.859375 -3.6875 C 18.390625 -3.894531 18.804688 -4.144531 19.109375 -4.4375 Z M 19.109375 -4.4375 "/></g></g></g><g fill="#ff8f00" fill-opacity="1"><g transform="translate(119.878292, 35.254244)"><g><path d="M 22.734375 -15.84375 L 22.734375 -9.46875 C 22.742188 -9.082031 22.734375 -8.613281 22.703125 -8.0625 C 22.671875 -7.519531 22.59375 -6.929688 22.46875 -6.296875 C 22.34375 -5.660156 22.117188 -5.015625 21.796875 -4.359375 C 21.484375 -3.710938 21.046875 -3.101562 20.484375 -2.53125 C 18.816406 -0.84375 16.3125 0 12.96875 0 L 11.109375 0 C 7.796875 0 5.300781 -0.84375 3.625 -2.53125 C 3.050781 -3.101562 2.609375 -3.710938 2.296875 -4.359375 C 1.984375 -5.015625 1.757812 -5.660156 1.625 -6.296875 C 1.488281 -6.929688 1.410156 -7.519531 1.390625 -8.0625 C 1.367188 -8.613281 1.359375 -9.082031 1.359375 -9.46875 L 1.359375 -15.84375 L 4.28125 -15.84375 L 4.28125 -9.46875 C 4.28125 -9.03125 4.296875 -8.523438 4.328125 -7.953125 C 4.367188 -7.378906 4.488281 -6.796875 4.6875 -6.203125 C 4.882812 -5.617188 5.21875 -5.082031 5.6875 -4.59375 C 6.78125 -3.476562 8.585938 -2.921875 11.109375 -2.921875 L 12.96875 -2.921875 C 15.488281 -2.921875 17.300781 -3.476562 18.40625 -4.59375 C 18.882812 -5.082031 19.222656 -5.617188 19.421875 -6.203125 C 19.617188 -6.796875 19.734375 -7.378906 19.765625 -7.953125 C 19.804688 -8.523438 19.828125 -9.03125 19.828125 -9.46875 L 19.828125 -15.84375 Z M 22.734375 -15.84375 "/></g></g></g><g fill="#ff8f00" fill-opacity="1"><g transform="translate(143.990962, 35.254244)"><g><path d="M 15.3125 -6.609375 L 15.3125 -9.515625 L 25.765625 -9.515625 L 25.765625 -8.0625 C 25.765625 -6.78125 25.414062 -5.609375 24.71875 -4.546875 C 24.03125 -3.492188 23.046875 -2.597656 21.765625 -1.859375 C 20.492188 -1.117188 18.972656 -0.585938 17.203125 -0.265625 C 16.222656 -0.0859375 15.195312 0 14.125 0 C 12.8125 0 11.515625 -0.125 10.234375 -0.375 C 8.960938 -0.632812 7.769531 -1.003906 6.65625 -1.484375 C 5.550781 -1.960938 4.597656 -2.539062 3.796875 -3.21875 C 2.171875 -4.570312 1.359375 -6.140625 1.359375 -7.921875 C 1.359375 -9.035156 1.6875 -10.070312 2.34375 -11.03125 C 3 -11.988281 3.910156 -12.828125 5.078125 -13.546875 C 6.253906 -14.265625 7.617188 -14.828125 9.171875 -15.234375 C 10.722656 -15.640625 12.398438 -15.84375 14.203125 -15.84375 C 16.054688 -15.84375 17.820312 -15.613281 19.5 -15.15625 C 21.1875 -14.695312 22.625 -14.050781 23.8125 -13.21875 L 22.171875 -10.828125 C 21.203125 -11.503906 20.019531 -12.019531 18.625 -12.375 C 17.238281 -12.738281 15.765625 -12.921875 14.203125 -12.921875 C 13.023438 -12.921875 11.847656 -12.800781 10.671875 -12.5625 C 9.503906 -12.320312 8.4375 -11.976562 7.46875 -11.53125 C 6.5 -11.09375 5.722656 -10.566406 5.140625 -9.953125 C 4.566406 -9.335938 4.28125 -8.660156 4.28125 -7.921875 C 4.28125 -7.046875 4.75 -6.21875 5.6875 -5.4375 C 6.269531 -4.9375 6.988281 -4.503906 7.84375 -4.140625 C 8.707031 -3.773438 9.640625 -3.488281 10.640625 -3.28125 C 11.640625 -3.070312 12.65625 -2.953125 13.6875 -2.921875 C 14.71875 -2.890625 15.722656 -2.960938 16.703125 -3.140625 C 18.179688 -3.410156 19.425781 -3.847656 20.4375 -4.453125 C 21.457031 -5.054688 22.15625 -5.773438 22.53125 -6.609375 Z M 15.3125 -6.609375 "/></g></g></g><g fill="#ff8f00" fill-opacity="1"><g transform="translate(171.137528, 35.254244)"><g><path d="M 13.828125 -15.84375 C 15.578125 -15.84375 17.207031 -15.640625 18.71875 -15.234375 C 20.226562 -14.828125 21.550781 -14.265625 22.6875 -13.546875 C 23.832031 -12.828125 24.722656 -11.988281 25.359375 -11.03125 C 25.992188 -10.070312 26.3125 -9.035156 26.3125 -7.921875 C 26.3125 -6.804688 25.992188 -5.769531 25.359375 -4.8125 C 24.722656 -3.851562 23.832031 -3.015625 22.6875 -2.296875 C 21.550781 -1.578125 20.226562 -1.015625 18.71875 -0.609375 C 17.207031 -0.203125 15.578125 0 13.828125 0 C 12.078125 0 10.445312 -0.203125 8.9375 -0.609375 C 7.425781 -1.015625 6.101562 -1.578125 4.96875 -2.296875 C 3.832031 -3.015625 2.945312 -3.851562 2.3125 -4.8125 C 1.675781 -5.769531 1.359375 -6.804688 1.359375 -7.921875 C 1.359375 -9.035156 1.675781 -10.070312 2.3125 -11.03125 C 2.945312 -11.988281 3.832031 -12.828125 4.96875 -13.546875 C 6.101562 -14.265625 7.425781 -14.828125 8.9375 -15.234375 C 10.445312 -15.640625 12.078125 -15.84375 13.828125 -15.84375 Z M 13.828125 -2.71875 C 14.960938 -2.71875 16.09375 -2.847656 17.21875 -3.109375 C 18.34375 -3.378906 19.375 -3.75 20.3125 -4.21875 C 21.25 -4.695312 21.992188 -5.25 22.546875 -5.875 C 23.109375 -6.5 23.390625 -7.179688 23.390625 -7.921875 C 23.390625 -8.660156 23.109375 -9.34375 22.546875 -9.96875 C 21.992188 -10.59375 21.25 -11.144531 20.3125 -11.625 C 19.375 -12.101562 18.34375 -12.472656 17.21875 -12.734375 C 16.09375 -12.992188 14.960938 -13.125 13.828125 -13.125 C 12.703125 -13.125 11.578125 -12.992188 10.453125 -12.734375 C 9.328125 -12.472656 8.296875 -12.101562 7.359375 -11.625 C 6.421875 -11.144531 5.671875 -10.59375 5.109375 -9.96875 C 4.554688 -9.34375 4.28125 -8.660156 4.28125 -7.921875 C 4.28125 -7.179688 4.554688 -6.5 5.109375 -5.875 C 5.671875 -5.25 6.421875 -4.695312 7.359375 -4.21875 C 8.296875 -3.75 9.328125 -3.378906 10.453125 -3.109375 C 11.578125 -2.847656 12.703125 -2.71875 13.828125 -2.71875 Z M 13.828125 -2.71875 "/></g></g></g><g fill="#365b6d" fill-opacity="1"><g transform="translate(66.850269, 50.538244)"><g><path d="M 4.734375 0.0625 C 3.953125 0.0625 3.242188 -0.109375 2.609375 -0.453125 C 1.984375 -0.796875 1.488281 -1.273438 1.125 -1.890625 C 0.769531 -2.515625 0.59375 -3.207031 0.59375 -3.96875 C 0.59375 -4.726562 0.769531 -5.414062 1.125 -6.03125 C 1.488281 -6.644531 1.984375 -7.125 2.609375 -7.46875 C 3.242188 -7.820312 3.957031 -8 4.75 -8 C 5.332031 -8 5.875 -7.898438 6.375 -7.703125 C 6.875 -7.503906 7.296875 -7.21875 7.640625 -6.84375 L 7.109375 -6.3125 C 6.492188 -6.9375 5.710938 -7.25 4.765625 -7.25 C 4.140625 -7.25 3.566406 -7.101562 3.046875 -6.8125 C 2.535156 -6.53125 2.132812 -6.140625 1.84375 -5.640625 C 1.5625 -5.140625 1.421875 -4.582031 1.421875 -3.96875 C 1.421875 -3.34375 1.5625 -2.78125 1.84375 -2.28125 C 2.132812 -1.789062 2.535156 -1.398438 3.046875 -1.109375 C 3.566406 -0.828125 4.140625 -0.6875 4.765625 -0.6875 C 5.722656 -0.6875 6.503906 -1 7.109375 -1.625 L 7.640625 -1.09375 C 7.296875 -0.71875 6.875 -0.429688 6.375 -0.234375 C 5.875 -0.0351562 5.328125 0.0625 4.734375 0.0625 Z M 4.734375 0.0625 "/></g></g></g><g fill="#365b6d" fill-opacity="1"><g transform="translate(74.989715, 50.538244)"><g><path d="M 4.765625 0.0625 C 3.972656 0.0625 3.257812 -0.109375 2.625 -0.453125 C 1.988281 -0.804688 1.488281 -1.289062 1.125 -1.90625 C 0.769531 -2.519531 0.59375 -3.207031 0.59375 -3.96875 C 0.59375 -4.726562 0.769531 -5.410156 1.125 -6.015625 C 1.488281 -6.628906 1.988281 -7.113281 2.625 -7.46875 C 3.257812 -7.820312 3.972656 -8 4.765625 -8 C 5.546875 -8 6.25 -7.820312 6.875 -7.46875 C 7.507812 -7.125 8.007812 -6.644531 8.375 -6.03125 C 8.738281 -5.414062 8.921875 -4.726562 8.921875 -3.96875 C 8.921875 -3.207031 8.738281 -2.515625 8.375 -1.890625 C 8.007812 -1.273438 7.507812 -0.796875 6.875 -0.453125 C 6.25 -0.109375 5.546875 0.0625 4.765625 0.0625 Z M 4.765625 -0.6875 C 5.390625 -0.6875 5.953125 -0.828125 6.453125 -1.109375 C 6.960938 -1.390625 7.359375 -1.78125 7.640625 -2.28125 C 7.929688 -2.78125 8.078125 -3.34375 8.078125 -3.96875 C 8.078125 -4.582031 7.929688 -5.140625 7.640625 -5.640625 C 7.359375 -6.148438 6.960938 -6.546875 6.453125 -6.828125 C 5.953125 -7.109375 5.390625 -7.25 4.765625 -7.25 C 4.128906 -7.25 3.554688 -7.109375 3.046875 -6.828125 C 2.535156 -6.546875 2.132812 -6.148438 1.84375 -5.640625 C 1.5625 -5.140625 1.421875 -4.582031 1.421875 -3.96875 C 1.421875 -3.34375 1.5625 -2.78125 1.84375 -2.28125 C 2.132812 -1.78125 2.535156 -1.390625 3.046875 -1.109375 C 3.554688 -0.828125 4.128906 -0.6875 4.765625 -0.6875 Z M 4.765625 -0.6875 "/></g></g></g><g fill="#365b6d" fill-opacity="1"><g transform="translate(84.487618, 50.538244)"><g><path d="M 7.921875 -7.9375 L 7.921875 0 L 7.234375 0 L 2.125 -6.4375 L 2.125 0 L 1.296875 0 L 1.296875 -7.9375 L 1.984375 -7.9375 L 7.09375 -1.5 L 7.09375 -7.9375 Z M 7.921875 -7.9375 "/></g></g></g><g fill="#365b6d" fill-opacity="1"><g transform="translate(93.691187, 50.538244)"><g><path d="M 3.484375 0.0625 C 2.890625 0.0625 2.320312 -0.03125 1.78125 -0.21875 C 1.238281 -0.40625 0.820312 -0.65625 0.53125 -0.96875 L 0.859375 -1.609375 C 1.148438 -1.316406 1.53125 -1.082031 2 -0.90625 C 2.476562 -0.726562 2.972656 -0.640625 3.484375 -0.640625 C 4.191406 -0.640625 4.722656 -0.769531 5.078125 -1.03125 C 5.429688 -1.289062 5.609375 -1.628906 5.609375 -2.046875 C 5.609375 -2.367188 5.507812 -2.625 5.3125 -2.8125 C 5.125 -3 4.890625 -3.144531 4.609375 -3.25 C 4.328125 -3.351562 3.9375 -3.460938 3.4375 -3.578125 C 2.84375 -3.734375 2.367188 -3.878906 2.015625 -4.015625 C 1.660156 -4.148438 1.351562 -4.363281 1.09375 -4.65625 C 0.84375 -4.945312 0.71875 -5.335938 0.71875 -5.828125 C 0.71875 -6.222656 0.820312 -6.582031 1.03125 -6.90625 C 1.25 -7.238281 1.578125 -7.503906 2.015625 -7.703125 C 2.453125 -7.898438 2.992188 -8 3.640625 -8 C 4.097656 -8 4.539062 -7.9375 4.96875 -7.8125 C 5.40625 -7.6875 5.785156 -7.515625 6.109375 -7.296875 L 5.828125 -6.625 C 5.492188 -6.84375 5.132812 -7.003906 4.75 -7.109375 C 4.375 -7.222656 4.003906 -7.28125 3.640625 -7.28125 C 2.953125 -7.28125 2.429688 -7.144531 2.078125 -6.875 C 1.722656 -6.613281 1.546875 -6.269531 1.546875 -5.84375 C 1.546875 -5.53125 1.640625 -5.273438 1.828125 -5.078125 C 2.023438 -4.890625 2.269531 -4.742188 2.5625 -4.640625 C 2.851562 -4.535156 3.242188 -4.425781 3.734375 -4.3125 C 4.316406 -4.164062 4.785156 -4.019531 5.140625 -3.875 C 5.503906 -3.738281 5.8125 -3.53125 6.0625 -3.25 C 6.3125 -2.96875 6.4375 -2.582031 6.4375 -2.09375 C 6.4375 -1.695312 6.328125 -1.332031 6.109375 -1 C 5.890625 -0.675781 5.554688 -0.414062 5.109375 -0.21875 C 4.671875 -0.03125 4.128906 0.0625 3.484375 0.0625 Z M 3.484375 0.0625 "/></g></g></g><g fill="#365b6d" fill-opacity="1"><g transform="translate(100.653302, 50.538244)"><g><path d="M 4.484375 0.0625 C 3.460938 0.0625 2.660156 -0.226562 2.078125 -0.8125 C 1.503906 -1.40625 1.21875 -2.265625 1.21875 -3.390625 L 1.21875 -7.9375 L 2.0625 -7.9375 L 2.0625 -3.421875 C 2.0625 -2.503906 2.269531 -1.816406 2.6875 -1.359375 C 3.101562 -0.910156 3.703125 -0.6875 4.484375 -0.6875 C 5.273438 -0.6875 5.878906 -0.910156 6.296875 -1.359375 C 6.710938 -1.816406 6.921875 -2.503906 6.921875 -3.421875 L 6.921875 -7.9375 L 7.734375 -7.9375 L 7.734375 -3.390625 C 7.734375 -2.265625 7.445312 -1.40625 6.875 -0.8125 C 6.3125 -0.226562 5.515625 0.0625 4.484375 0.0625 Z M 4.484375 0.0625 "/></g></g></g><g fill="#365b6d" fill-opacity="1"><g transform="translate(109.619143, 50.538244)"><g><path d="M 1.296875 -7.9375 L 2.125 -7.9375 L 2.125 -0.71875 L 6.578125 -0.71875 L 6.578125 0 L 1.296875 0 Z M 1.296875 -7.9375 "/></g></g></g><g fill="#365b6d" fill-opacity="1"><g transform="translate(116.286926, 50.538244)"><g><path d="M 2.828125 -7.203125 L 0.046875 -7.203125 L 0.046875 -7.9375 L 6.453125 -7.9375 L 6.453125 -7.203125 L 3.671875 -7.203125 L 3.671875 0 L 2.828125 0 Z M 2.828125 -7.203125 "/></g></g></g><g fill="#365b6d" fill-opacity="1"><g transform="translate(122.784897, 50.538244)"><g><path d="M 1.296875 -7.9375 L 2.125 -7.9375 L 2.125 0 L 1.296875 0 Z M 1.296875 -7.9375 "/></g></g></g><g fill="#365b6d" fill-opacity="1"><g transform="translate(126.203694, 50.538244)"><g><path d="M 7.921875 -7.9375 L 7.921875 0 L 7.234375 0 L 2.125 -6.4375 L 2.125 0 L 1.296875 0 L 1.296875 -7.9375 L 1.984375 -7.9375 L 7.09375 -1.5 L 7.09375 -7.9375 Z M 7.921875 -7.9375 "/></g></g></g><g fill="#365b6d" fill-opacity="1"><g transform="translate(135.407263, 50.538244)"><g><path d="M 6.875 -3.96875 L 7.6875 -3.96875 L 7.6875 -0.9375 C 7.3125 -0.613281 6.867188 -0.363281 6.359375 -0.1875 C 5.859375 -0.0195312 5.328125 0.0625 4.765625 0.0625 C 3.972656 0.0625 3.257812 -0.109375 2.625 -0.453125 C 1.988281 -0.796875 1.488281 -1.273438 1.125 -1.890625 C 0.769531 -2.515625 0.59375 -3.207031 0.59375 -3.96875 C 0.59375 -4.726562 0.769531 -5.414062 1.125 -6.03125 C 1.488281 -6.644531 1.988281 -7.125 2.625 -7.46875 C 3.257812 -7.820312 3.976562 -8 4.78125 -8 C 5.382812 -8 5.9375 -7.898438 6.4375 -7.703125 C 6.945312 -7.515625 7.375 -7.234375 7.71875 -6.859375 L 7.203125 -6.328125 C 6.578125 -6.941406 5.78125 -7.25 4.8125 -7.25 C 4.175781 -7.25 3.597656 -7.109375 3.078125 -6.828125 C 2.554688 -6.546875 2.148438 -6.148438 1.859375 -5.640625 C 1.566406 -5.140625 1.421875 -4.582031 1.421875 -3.96875 C 1.421875 -3.34375 1.566406 -2.78125 1.859375 -2.28125 C 2.148438 -1.789062 2.550781 -1.398438 3.0625 -1.109375 C 3.582031 -0.828125 4.160156 -0.6875 4.796875 -0.6875 C 5.617188 -0.6875 6.3125 -0.890625 6.875 -1.296875 Z M 6.875 -3.96875 "/></g></g></g></svg>